<svg width="14" height="14" viewBox="0 0 14 14" fill="none" xmlns="http://www.w3.org/2000/svg">
<path d="M7.00024 0.833252C10.404 0.833428 13.1663 3.59649 13.1663 7.00024C13.1661 10.4038 10.4038 13.1661 7.00024 13.1663C3.59649 13.1663 0.833428 10.404 0.833252 7.00024C0.833252 3.59639 3.59639 0.833252 7.00024 0.833252ZM7.38013 1.66626C6.98256 1.66626 6.6376 1.90292 6.47681 2.24146C6.31608 1.90289 5.97102 1.66635 5.57349 1.66626C5.02412 1.66626 4.57366 2.11693 4.57349 2.66626V3.11353H3.69946C3.15019 3.11377 2.69946 3.5642 2.69946 4.11353C2.69961 4.66272 3.15028 5.11328 3.69946 5.11353H3.85278V8.88696H3.69946C3.15019 8.88721 2.69946 9.33764 2.69946 9.88696C2.69967 10.4361 3.15032 10.8867 3.69946 10.887H4.57349V11.3333C4.57349 11.8827 5.02401 12.3333 5.57349 12.3333C5.97144 12.3332 6.3163 12.0962 6.47681 11.7571C6.63738 12.0962 6.98214 12.3333 7.38013 12.3333C7.92951 12.3331 8.38013 11.8827 8.38013 11.3333V10.887H8.97974C10.3914 10.887 11.633 9.83791 11.6331 8.45337C11.6331 7.68583 11.2515 7.02106 10.6799 6.58228C10.8254 6.274 10.9133 5.92969 10.9133 5.55981C10.9133 4.24277 9.77519 3.11379 8.46704 3.11353H8.38013V2.66626C8.37995 2.117 7.9294 1.66637 7.38013 1.66626Z" fill="#64748B" stroke="#64748B"/>
</svg>
