<svg width="16" height="16" viewBox="0 0 16 16" fill="none" xmlns="http://www.w3.org/2000/svg">
<path d="M9.98022 9C10.4391 9.00012 10.6335 9.28849 10.6335 9.44043C10.6332 9.59651 10.4337 9.8866 9.98022 9.88672H6.85327V9H9.98022Z" fill="#64748B" stroke="#64748B"/>
<path d="M8.00024 1.83325C11.404 1.83343 14.1663 4.59649 14.1663 8.00024C14.1661 11.4038 11.4038 14.1661 8.00024 14.1663C4.59649 14.1663 1.83343 11.404 1.83325 8.00024C1.83325 4.59639 4.59639 1.83325 8.00024 1.83325ZM8.38013 2.66626C7.98256 2.66626 7.6376 2.90292 7.47681 3.24146C7.31608 2.90289 6.97102 2.66635 6.57349 2.66626C6.02412 2.66626 5.57366 3.11693 5.57349 3.66626V4.11353H4.69946C4.15019 4.11377 3.69946 4.5642 3.69946 5.11353C3.69961 5.66272 4.15028 6.11328 4.69946 6.11353H4.85278V9.88696H4.69946C4.15019 9.88721 3.69946 10.3376 3.69946 10.887C3.69967 11.4361 4.15032 11.8867 4.69946 11.887H5.57349V12.3333C5.57349 12.8827 6.02401 13.3333 6.57349 13.3333C6.97144 13.3332 7.3163 13.0962 7.47681 12.7571C7.63738 13.0962 7.98214 13.3333 8.38013 13.3333C8.92951 13.3331 9.38013 12.8827 9.38013 12.3333V11.887H9.97974C11.3914 11.887 12.633 10.8379 12.6331 9.45337C12.6331 8.68583 12.2515 8.02106 11.6799 7.58228C11.8254 7.274 11.9133 6.92969 11.9133 6.55981C11.9133 5.24277 10.7752 4.11379 9.46704 4.11353H9.38013V3.66626C9.37995 3.117 8.9294 2.66637 8.38013 2.66626Z" fill="#64748B" stroke="#64748B"/>
<path d="M9.46655 6.10669C9.56937 6.10669 9.68073 6.15619 9.77515 6.25708C9.87348 6.36234 9.9127 6.48083 9.91284 6.55298C9.91284 6.79798 9.71084 6.99624 9.47339 6.99341H6.85327V6.10669H9.46655Z" fill="#64748B" stroke="#64748B"/>
</svg>
