<svg width="20" height="20" viewBox="0 0 20 20" fill="none" xmlns="http://www.w3.org/2000/svg">
<path fill-rule="evenodd" clip-rule="evenodd" d="M12.9019 1.80976C13.0377 2.13839 13.0917 2.52506 13.0917 2.93342V8.18342H14.9167C15.5933 8.18342 16.3749 8.3901 16.694 9.0966C17.0131 9.80331 16.6507 10.525 16.204 11.0297C16.2037 11.03 16.2034 11.0304 16.2031 11.0307L9.89632 18.1956C9.62654 18.5019 9.33049 18.7564 9.01184 18.9136C8.69 19.0723 8.28673 19.1566 7.8812 19.0043C7.47525 18.8519 7.22709 18.5227 7.0898 18.1904C6.95401 17.8618 6.90001 17.4751 6.90001 17.0667V11.8168H5.07501C4.40318 11.8168 3.6239 11.6125 3.3044 10.9076C2.98566 10.2044 3.34285 9.48296 3.7836 8.97515L3.78703 8.97119L10.0954 1.80454C10.3652 1.49831 10.6612 1.24372 10.9799 1.08656C11.3017 0.92783 11.705 0.843605 12.1105 0.995852C12.5164 1.14825 12.7646 1.4775 12.9019 1.80976ZM11.2211 2.79586C11.221 2.79593 11.2212 2.79578 11.2211 2.79586L4.91481 9.96022C4.79621 10.0972 4.73576 10.2025 4.70703 10.271C4.77702 10.2937 4.89525 10.3168 5.07501 10.3168H7.65001C8.06423 10.3168 8.40001 10.6525 8.40001 11.0668V17.0667C8.40001 17.2674 8.41932 17.4122 8.44286 17.5109C8.52622 17.4522 8.63707 17.3558 8.77037 17.2045L15.0787 10.0379L15.0802 10.0361C15.1993 9.90175 15.2603 9.79792 15.2896 9.73031C15.2189 9.70701 15.099 9.68342 14.9167 9.68342H12.3417C11.9275 9.68342 11.5917 9.34763 11.5917 8.93342V2.93342C11.5917 2.7328 11.5724 2.58798 11.5488 2.4893C11.4655 2.54798 11.3544 2.64457 11.2211 2.79586ZM8.49613 17.658C8.49612 17.658 8.49586 17.6577 8.49538 17.6569L8.49613 17.658Z" fill="#0F172A"/>
</svg>
