<svg width="16" height="16" viewBox="0 0 16 16" fill="none" xmlns="http://www.w3.org/2000/svg">
<path fill-rule="evenodd" clip-rule="evenodd" d="M2.75766 2.7576C2.2432 3.27206 1.9334 4.09249 1.9334 5.33334V8.66667C1.9334 10.2816 2.26167 11.0566 2.7285 11.4651C3.21516 11.8909 4.01068 12.0667 5.3334 12.0667H5.66673C5.87498 12.0667 6.07377 12.1313 6.22739 12.2074C6.37884 12.2825 6.55446 12.4026 6.6821 12.5761L7.68007 13.9067C7.8034 14.0711 7.92504 14.1067 8.00007 14.1067C8.07509 14.1067 8.19673 14.0711 8.32007 13.9067L9.32236 12.5703C9.56076 12.2566 9.93639 12.0667 10.3334 12.0667H10.6667C11.9076 12.0667 12.728 11.7569 13.2425 11.2424C13.7569 10.7279 14.0667 9.90752 14.0667 8.66667V5.33334C14.0667 4.09249 13.7569 3.27206 13.2425 2.7576C12.728 2.24314 11.9076 1.93334 10.6667 1.93334H5.3334C4.09255 1.93334 3.27212 2.24314 2.75766 2.7576ZM1.90913 1.90907C2.72801 1.0902 3.90758 0.733337 5.3334 0.733337H10.6667C12.0926 0.733337 13.2721 1.0902 14.091 1.90907C14.9099 2.72795 15.2667 3.90752 15.2667 5.33334V8.66667C15.2667 10.0925 14.9099 11.2721 14.091 12.0909C13.2721 12.9098 12.0926 13.2667 10.6667 13.2667H10.3334C10.3173 13.2667 10.2933 13.2765 10.2783 13.2957C10.2781 13.2959 10.2785 13.2954 10.2783 13.2957L9.28007 14.6267C8.9634 15.0489 8.50504 15.3067 8.00007 15.3067C7.49509 15.3067 7.03673 15.0489 6.72007 14.6267L5.72621 13.3015C5.71958 13.2966 5.70872 13.2897 5.69441 13.2826C5.67843 13.2747 5.66412 13.2695 5.65446 13.2669C5.65412 13.2668 5.65379 13.2668 5.65348 13.2667H5.3334C3.98945 13.2667 2.78497 13.1091 1.9383 12.3682C1.0718 11.61 0.733398 10.3851 0.733398 8.66667V5.33334C0.733398 3.90752 1.09026 2.72795 1.90913 1.90907Z" fill="#0F172A"/>
<path fill-rule="evenodd" clip-rule="evenodd" d="M4.06641 5.33334C4.06641 5.00197 4.33504 4.73334 4.66641 4.73334H11.3331C11.6644 4.73334 11.9331 5.00197 11.9331 5.33334C11.9331 5.66471 11.6644 5.93334 11.3331 5.93334H4.66641C4.33504 5.93334 4.06641 5.66471 4.06641 5.33334Z" fill="#0F172A"/>
<path fill-rule="evenodd" clip-rule="evenodd" d="M4.06641 8.66659C4.06641 8.33522 4.33504 8.06659 4.66641 8.06659H8.66641C8.99778 8.06659 9.26641 8.33522 9.26641 8.66659C9.26641 8.99796 8.99778 9.26659 8.66641 9.26659H4.66641C4.33504 9.26659 4.06641 8.99796 4.06641 8.66659Z" fill="#0F172A"/>
</svg>
