<svg width="40" height="40" viewBox="0 0 40 40" fill="none" xmlns="http://www.w3.org/2000/svg">
<rect width="40" height="40" rx="20" fill="#0F172A"/>
<g clip-path="url(#clip0_232_12966)">
<path fill-rule="evenodd" clip-rule="evenodd" d="M15.2463 13.8114L12.5112 19.3148C12.5008 19.3353 12.4975 19.3584 12.5018 19.3808C12.5061 19.4032 12.5178 19.4237 12.5351 19.4393L19.9218 26.22C19.9427 26.2392 19.9707 26.25 19.9998 26.25C20.0288 26.25 20.0568 26.2392 20.0778 26.22L27.4644 19.4397C27.4817 19.4241 27.4934 19.4036 27.4977 19.3812C27.502 19.3588 27.4987 19.3357 27.4883 19.3153L24.7532 13.8118C24.7444 13.7933 24.7302 13.7777 24.7123 13.7667C24.6945 13.7558 24.6737 13.75 24.6525 13.75H15.3479C15.3266 13.7498 15.3057 13.7554 15.2876 13.7663C15.2696 13.7772 15.2552 13.7929 15.2463 13.8114Z" fill="white"/>
<path fill-rule="evenodd" clip-rule="evenodd" d="M20.9491 19.88C20.8961 19.8838 20.6221 19.8995 20.0109 19.8995C19.5248 19.8995 19.1797 19.8855 19.0586 19.88C17.18 19.8008 15.7778 19.4876 15.7778 19.1125C15.7778 18.7374 17.18 18.4246 19.0586 18.3441V19.568C19.1815 19.5765 19.5332 19.5964 20.0193 19.5964C20.6027 19.5964 20.8948 19.5731 20.9474 19.5684V18.345C22.822 18.425 24.2211 18.7383 24.2211 19.1125C24.2211 19.4867 22.8224 19.8 20.9474 19.8796L20.9491 19.88ZM20.9491 18.2184V17.1232H23.5653V15.4531H16.4425V17.1232H19.0582V18.218C16.9321 18.3115 15.3333 18.715 15.3333 19.1984C15.3333 19.6819 16.9321 20.0849 19.0582 20.1789V23.6884H20.9487V20.1776C23.0699 20.0841 24.6661 19.681 24.6661 19.198C24.6661 18.715 23.0712 18.3119 20.9487 18.218L20.9491 18.2184Z" fill="#0F172A"/>
</g>
<defs>
<clipPath id="clip0_232_12966">
<rect width="15" height="12.5" fill="white" transform="translate(12.5 13.75)"/>
</clipPath>
</defs>
</svg>
