<svg width="40" height="40" viewBox="0 0 40 40" fill="none" xmlns="http://www.w3.org/2000/svg">
<rect width="40" height="40" rx="20" fill="#0F172A"/>
<path fill-rule="evenodd" clip-rule="evenodd" d="M11.5472 13.0707C12.2198 11.8639 13.5159 11.0416 15.0015 11.0416H22.5015C22.8466 11.0416 23.1265 11.3214 23.1265 11.6666V20C23.1265 21.2618 22.0966 22.2916 20.8348 22.2916H20.0015C19.6563 22.2916 19.3765 22.0118 19.3765 21.6666C19.3765 21.3214 19.6563 21.0416 20.0015 21.0416H20.8348C21.4063 21.0416 21.8765 20.5714 21.8765 20V12.2916H15.0015C13.987 12.2916 13.0998 12.8527 12.6391 13.6792C12.471 13.9807 12.0904 14.0889 11.7888 13.9209C11.4873 13.7528 11.3792 13.3722 11.5472 13.0707Z" fill="white"/>
<path fill-rule="evenodd" clip-rule="evenodd" d="M21.8753 14.1666C21.8753 13.8214 22.1551 13.5416 22.5003 13.5416H24.0337C24.8619 13.5416 25.6151 13.99 26.0242 14.6945L26.0262 14.698L26.0262 14.698L27.4512 17.1897C27.5618 17.3831 27.5611 17.6208 27.4493 17.8136C27.3375 18.0063 27.1315 18.125 26.9086 18.125H25.8337C25.7205 18.125 25.6253 18.2201 25.6253 18.3333V20.8333C25.6253 20.9464 25.7205 21.0416 25.8337 21.0416H28.3337C28.6788 21.0416 28.9587 21.3214 28.9587 21.6666V24.1666C28.9587 25.8951 27.5622 27.2916 25.8337 27.2916H25.0003C24.6551 27.2916 24.3753 27.0118 24.3753 26.6666C24.3753 26.0951 23.9051 25.625 23.3337 25.625C22.7622 25.625 22.292 26.0951 22.292 26.6666C22.292 27.0118 22.0122 27.2916 21.667 27.2916H18.3337C17.9885 27.2916 17.7087 27.0118 17.7087 26.6666C17.7087 26.0951 17.2385 25.625 16.667 25.625C16.0955 25.625 15.6253 26.0951 15.6253 26.6666C15.6253 27.0118 15.3455 27.2916 15.0003 27.2916H14.167C12.4385 27.2916 11.042 25.8951 11.042 24.1666C11.042 23.8214 11.3218 23.5416 11.667 23.5416C12.0122 23.5416 12.292 23.8214 12.292 24.1666C12.292 25.2048 13.1288 26.0416 14.167 26.0416H14.4622C14.7355 25.0817 15.6217 24.375 16.667 24.375C17.7123 24.375 18.5984 25.0817 18.8717 26.0416H21.1289C21.4022 25.0817 22.2883 24.375 23.3337 24.375C24.379 24.375 25.2651 25.0817 25.5384 26.0416H25.8337C26.8718 26.0416 27.7087 25.2048 27.7087 24.1666V22.2916H25.8337C25.0301 22.2916 24.3753 21.6368 24.3753 20.8333V18.3333C24.3753 17.5306 25.0288 16.8763 25.8312 16.875L24.9432 15.3221C24.9429 15.3216 24.9425 15.321 24.9422 15.3205C24.7511 14.9926 24.4049 14.7916 24.0337 14.7916H23.1253V20C23.1253 21.2618 22.0955 22.2916 20.8337 22.2916H20.0003C19.6551 22.2916 19.3753 22.0118 19.3753 21.6666C19.3753 21.3214 19.6551 21.0416 20.0003 21.0416H20.8337C21.4051 21.0416 21.8753 20.5714 21.8753 20V14.1666Z" fill="white"/>
<path fill-rule="evenodd" clip-rule="evenodd" d="M16.6674 25.625C16.0921 25.625 15.6257 26.0914 15.6257 26.6667C15.6257 27.242 16.0921 27.7083 16.6674 27.7083C17.2427 27.7083 17.7091 27.242 17.7091 26.6667C17.7091 26.0914 17.2427 25.625 16.6674 25.625ZM14.3757 26.6667C14.3757 25.401 15.4017 24.375 16.6674 24.375C17.9331 24.375 18.9591 25.401 18.9591 26.6667C18.9591 27.9323 17.9331 28.9583 16.6674 28.9583C15.4017 28.9583 14.3757 27.9323 14.3757 26.6667Z" fill="white"/>
<path fill-rule="evenodd" clip-rule="evenodd" d="M23.3337 25.625C22.7584 25.625 22.292 26.0914 22.292 26.6667C22.292 27.242 22.7584 27.7083 23.3337 27.7083C23.909 27.7083 24.3753 27.242 24.3753 26.6667C24.3753 26.0914 23.909 25.625 23.3337 25.625ZM21.042 26.6667C21.042 25.401 22.068 24.375 23.3337 24.375C24.5993 24.375 25.6253 25.401 25.6253 26.6667C25.6253 27.9323 24.5993 28.9583 23.3337 28.9583C22.068 28.9583 21.042 27.9323 21.042 26.6667Z" fill="white"/>
<path fill-rule="evenodd" clip-rule="evenodd" d="M25.8341 18.125C25.7209 18.125 25.6257 18.2202 25.6257 18.3333V20.8333C25.6257 20.9465 25.7209 21.0417 25.8341 21.0417H27.7091V20.1656L26.5459 18.125H25.8341ZM24.3757 18.3333C24.3757 17.5298 25.0306 16.875 25.8341 16.875H26.909C27.1336 16.875 27.3408 16.9954 27.452 17.1905L28.877 19.6905C28.9308 19.7848 28.9591 19.8915 28.9591 20V21.6667C28.9591 22.0118 28.6792 22.2917 28.3341 22.2917H25.8341C25.0306 22.2917 24.3757 21.6368 24.3757 20.8333V18.3333Z" fill="white"/>
<path fill-rule="evenodd" clip-rule="evenodd" d="M11.042 16.6666C11.042 16.3214 11.3218 16.0416 11.667 16.0416H16.667C17.0122 16.0416 17.292 16.3214 17.292 16.6666C17.292 17.0118 17.0122 17.2916 16.667 17.2916H11.667C11.3218 17.2916 11.042 17.0118 11.042 16.6666Z" fill="white"/>
<path fill-rule="evenodd" clip-rule="evenodd" d="M11.042 19.1666C11.042 18.8214 11.3218 18.5416 11.667 18.5416H15.0003C15.3455 18.5416 15.6253 18.8214 15.6253 19.1666C15.6253 19.5118 15.3455 19.7916 15.0003 19.7916H11.667C11.3218 19.7916 11.042 19.5118 11.042 19.1666Z" fill="white"/>
<path fill-rule="evenodd" clip-rule="evenodd" d="M11.042 21.6666C11.042 21.3214 11.3218 21.0416 11.667 21.0416H13.3337C13.6788 21.0416 13.9587 21.3214 13.9587 21.6666C13.9587 22.0118 13.6788 22.2916 13.3337 22.2916H11.667C11.3218 22.2916 11.042 22.0118 11.042 21.6666Z" fill="white"/>
</svg>
