<svg width="16" height="17" viewBox="0 0 16 17" fill="none" xmlns="http://www.w3.org/2000/svg">
<path fill-rule="evenodd" clip-rule="evenodd" d="M3.30102 3.75764C4.64066 3.62235 5.98049 3.55469 7.32043 3.55469C9.5674 3.55469 11.8205 3.66905 14.0596 3.89095C14.3894 3.92362 14.6302 4.21743 14.5975 4.54719C14.5648 4.87695 14.271 5.11777 13.9413 5.0851C11.7404 4.86699 9.5268 4.75469 7.32043 4.75469C6.02067 4.75469 4.7208 4.82033 3.42073 4.95165L3.41898 4.95183L3.41898 4.95182L2.05898 5.08516C1.72919 5.11749 1.43563 4.87635 1.4033 4.54656C1.37096 4.21677 1.6121 3.92322 1.94189 3.89088L3.30102 3.75764Z" fill="#0F172A"/>
<path fill-rule="evenodd" clip-rule="evenodd" d="M6.40581 3.04069L6.25919 3.91375C6.20431 4.24054 5.8949 4.46097 5.56811 4.40609C5.24131 4.35121 5.02088 4.0418 5.07576 3.715L5.22243 2.84167C5.22514 2.82561 5.22794 2.80855 5.23081 2.79113C5.27591 2.51717 5.34734 2.08329 5.6383 1.75336C5.98271 1.3628 6.50102 1.23438 7.12748 1.23438H8.87414C9.50959 1.23438 10.027 1.37369 10.369 1.7678C10.6599 2.10304 10.7294 2.53769 10.7726 2.80728C10.7749 2.82182 10.7772 2.83589 10.7794 2.84943L10.9257 3.71426C10.981 4.04099 10.761 4.35067 10.4343 4.40596C10.1075 4.46126 9.79785 4.24122 9.74256 3.91449L9.59529 3.04426C9.53837 2.69518 9.50537 2.60352 9.46264 2.55429C9.46255 2.55418 9.46276 2.55442 9.46264 2.55429C9.45278 2.54281 9.35952 2.43438 8.87414 2.43438H7.12748C6.63476 2.43438 6.54488 2.5394 6.53856 2.54679C6.53846 2.5469 6.53861 2.54672 6.53856 2.54679C6.52775 2.55904 6.50564 2.59005 6.48052 2.67363C6.4533 2.76421 6.43395 2.87363 6.40581 3.04069Z" fill="#0F172A"/>
<path fill-rule="evenodd" clip-rule="evenodd" d="M3.39511 5.99541C3.7258 5.97406 4.01117 6.22483 4.03252 6.55551L4.46574 13.2672C4.48465 13.537 4.50026 13.7432 4.53612 13.9212C4.5708 14.0934 4.61695 14.196 4.6696 14.2645C4.75333 14.3735 4.99088 14.5675 5.86043 14.5675H10.1404C11.01 14.5675 11.2475 14.3735 11.3313 14.2645C11.3839 14.196 11.4301 14.0934 11.4647 13.9212C11.5006 13.7432 11.5162 13.537 11.5351 13.2672C11.5352 13.2667 11.5352 13.2661 11.5352 13.2656L11.9683 6.55551C11.9897 6.22483 12.2751 5.97406 12.6057 5.99541C12.9364 6.01675 13.1872 6.30213 13.1658 6.63281L12.7323 13.3494L12.7312 13.3648C12.7138 13.6137 12.6941 13.8951 12.6411 14.1581C12.5858 14.4328 12.487 14.7299 12.2829 14.9955C11.8533 15.5548 11.1309 15.7675 10.1404 15.7675H5.86043C4.86998 15.7675 4.14753 15.5548 3.71792 14.9955C3.51391 14.7299 3.41505 14.4328 3.35974 14.1581C3.30676 13.8951 3.28707 13.6137 3.26964 13.3648L3.26833 13.3461L2.83501 6.63281C2.81366 6.30213 3.06443 6.01675 3.39511 5.99541Z" fill="#0F172A"/>
<path fill-rule="evenodd" clip-rule="evenodd" d="M6.28711 11.5004C6.28711 11.169 6.55574 10.9004 6.88711 10.9004H9.10711C9.43848 10.9004 9.70711 11.169 9.70711 11.5004C9.70711 11.8318 9.43848 12.1004 9.10711 12.1004H6.88711C6.55574 12.1004 6.28711 11.8318 6.28711 11.5004Z" fill="#0F172A"/>
<path fill-rule="evenodd" clip-rule="evenodd" d="M5.7334 8.83438C5.7334 8.503 6.00203 8.23438 6.3334 8.23438H9.66673C9.9981 8.23438 10.2667 8.503 10.2667 8.83438C10.2667 9.16575 9.9981 9.43438 9.66673 9.43438H6.3334C6.00203 9.43438 5.7334 9.16575 5.7334 8.83438Z" fill="#0F172A"/>
</svg>
