<svg width="20" height="20" viewBox="0 0 20 20" fill="none" xmlns="http://www.w3.org/2000/svg">
<path fill-rule="evenodd" clip-rule="evenodd" d="M1.54721 3.07078C2.21983 1.86401 3.5159 1.04175 5.00146 1.04175H12.5015C12.8466 1.04175 13.1265 1.32157 13.1265 1.66675V10.0001C13.1265 11.2619 12.0966 12.2917 10.8348 12.2917H10.0015C9.65628 12.2917 9.37646 12.0119 9.37646 11.6667C9.37646 11.3216 9.65628 11.0417 10.0015 11.0417H10.8348C11.4063 11.0417 11.8765 10.5716 11.8765 10.0001V2.29175H5.00146C3.98701 2.29175 3.09976 2.8528 2.63906 3.67936C2.471 3.98086 2.09035 4.08905 1.78884 3.921C1.48734 3.75294 1.37915 3.37229 1.54721 3.07078Z" fill="#0F172A"/>
<path fill-rule="evenodd" clip-rule="evenodd" d="M11.8753 4.16675C11.8753 3.82157 12.1551 3.54175 12.5003 3.54175H14.0337C14.8619 3.54175 15.6151 3.99008 16.0242 4.69459L16.0262 4.69814L16.0262 4.69815L17.4512 7.1898C17.5618 7.38324 17.5611 7.62094 17.4493 7.81369C17.3375 8.00644 17.1315 8.12508 16.9086 8.12508H15.8337C15.7205 8.12508 15.6253 8.22026 15.6253 8.33342V10.8334C15.6253 10.9466 15.7205 11.0417 15.8337 11.0417H18.3337C18.6788 11.0417 18.9587 11.3216 18.9587 11.6667V14.1667C18.9587 15.8953 17.5622 17.2917 15.8337 17.2917H15.0003C14.6551 17.2917 14.3753 17.0119 14.3753 16.6667C14.3753 16.0953 13.9051 15.6251 13.3337 15.6251C12.7622 15.6251 12.292 16.0953 12.292 16.6667C12.292 17.0119 12.0122 17.2917 11.667 17.2917H8.33366C7.98848 17.2917 7.70866 17.0119 7.70866 16.6667C7.70866 16.0953 7.23848 15.6251 6.66699 15.6251C6.0955 15.6251 5.62532 16.0953 5.62532 16.6667C5.62532 17.0119 5.3455 17.2917 5.00032 17.2917H4.16699C2.43848 17.2917 1.04199 15.8953 1.04199 14.1667C1.04199 13.8216 1.32181 13.5417 1.66699 13.5417C2.01217 13.5417 2.29199 13.8216 2.29199 14.1667C2.29199 15.2049 3.12884 16.0417 4.16699 16.0417H4.46225C4.73555 15.0818 5.62165 14.3751 6.66699 14.3751C7.71233 14.3751 8.59843 15.0818 8.87173 16.0417H11.1289C11.4022 15.0818 12.2883 14.3751 13.3337 14.3751C14.379 14.3751 15.2651 15.0818 15.5384 16.0417H15.8337C16.8718 16.0417 17.7087 15.2049 17.7087 14.1667V12.2917H15.8337C15.0301 12.2917 14.3753 11.6369 14.3753 10.8334V8.33342C14.3753 7.53072 15.0288 6.87641 15.8312 6.87508L14.9432 5.32226C14.9429 5.32171 14.9425 5.32117 14.9422 5.32063C14.7511 4.99277 14.4049 4.79175 14.0337 4.79175H13.1253V10.0001C13.1253 11.2619 12.0955 12.2917 10.8337 12.2917H10.0003C9.65515 12.2917 9.37532 12.0119 9.37532 11.6667C9.37532 11.3216 9.65515 11.0417 10.0003 11.0417H10.8337C11.4051 11.0417 11.8753 10.5716 11.8753 10.0001V4.16675Z" fill="#0F172A"/>
<path fill-rule="evenodd" clip-rule="evenodd" d="M6.6674 15.6252C6.0921 15.6252 5.62573 16.0916 5.62573 16.6669C5.62573 17.2422 6.0921 17.7086 6.6674 17.7086C7.2427 17.7086 7.70907 17.2422 7.70907 16.6669C7.70907 16.0916 7.2427 15.6252 6.6674 15.6252ZM4.37573 16.6669C4.37573 15.4013 5.40175 14.3752 6.6674 14.3752C7.93305 14.3752 8.95907 15.4013 8.95907 16.6669C8.95907 17.9326 7.93305 18.9586 6.6674 18.9586C5.40175 18.9586 4.37573 17.9326 4.37573 16.6669Z" fill="#0F172A"/>
<path fill-rule="evenodd" clip-rule="evenodd" d="M13.3337 15.6252C12.7584 15.6252 12.292 16.0916 12.292 16.6669C12.292 17.2422 12.7584 17.7086 13.3337 17.7086C13.909 17.7086 14.3753 17.2422 14.3753 16.6669C14.3753 16.0916 13.909 15.6252 13.3337 15.6252ZM11.042 16.6669C11.042 15.4013 12.068 14.3752 13.3337 14.3752C14.5993 14.3752 15.6253 15.4013 15.6253 16.6669C15.6253 17.9326 14.5993 18.9586 13.3337 18.9586C12.068 18.9586 11.042 17.9326 11.042 16.6669Z" fill="#0F172A"/>
<path fill-rule="evenodd" clip-rule="evenodd" d="M15.8341 8.12524C15.7209 8.12524 15.6257 8.22042 15.6257 8.33358V10.8336C15.6257 10.9467 15.7209 11.0419 15.8341 11.0419H17.7091V10.1659L16.5459 8.12524H15.8341ZM14.3757 8.33358C14.3757 7.53007 15.0306 6.87524 15.8341 6.87524H16.909C17.1336 6.87524 17.3408 6.99568 17.452 7.19074L18.877 9.69074C18.9308 9.78504 18.9591 9.8917 18.9591 10.0002V11.6669C18.9591 12.0121 18.6792 12.2919 18.3341 12.2919H15.8341C15.0306 12.2919 14.3757 11.6371 14.3757 10.8336V8.33358Z" fill="#0F172A"/>
<path fill-rule="evenodd" clip-rule="evenodd" d="M1.04199 6.66675C1.04199 6.32157 1.32181 6.04175 1.66699 6.04175H6.66699C7.01217 6.04175 7.29199 6.32157 7.29199 6.66675C7.29199 7.01193 7.01217 7.29175 6.66699 7.29175H1.66699C1.32181 7.29175 1.04199 7.01193 1.04199 6.66675Z" fill="#0F172A"/>
<path fill-rule="evenodd" clip-rule="evenodd" d="M1.04199 9.16675C1.04199 8.82157 1.32181 8.54175 1.66699 8.54175H5.00033C5.3455 8.54175 5.62533 8.82157 5.62533 9.16675C5.62533 9.51193 5.3455 9.79175 5.00033 9.79175H1.66699C1.32181 9.79175 1.04199 9.51193 1.04199 9.16675Z" fill="#0F172A"/>
<path fill-rule="evenodd" clip-rule="evenodd" d="M1.04199 11.6667C1.04199 11.3216 1.32181 11.0417 1.66699 11.0417H3.33366C3.67884 11.0417 3.95866 11.3216 3.95866 11.6667C3.95866 12.0119 3.67884 12.2917 3.33366 12.2917H1.66699C1.32181 12.2917 1.04199 12.0119 1.04199 11.6667Z" fill="#0F172A"/>
</svg>
