<svg width="20" height="20" viewBox="0 0 20 20" fill="none" xmlns="http://www.w3.org/2000/svg">
<path fill-rule="evenodd" clip-rule="evenodd" d="M9.99984 2.4165C5.81168 2.4165 2.4165 5.81168 2.4165 9.99984C2.4165 14.188 5.81168 17.5832 9.99984 17.5832C14.188 17.5832 17.5832 14.188 17.5832 9.99984C17.5832 5.81168 14.188 2.4165 9.99984 2.4165ZM0.916504 9.99984C0.916504 4.98325 4.98325 0.916504 9.99984 0.916504C15.0164 0.916504 19.0832 4.98325 19.0832 9.99984C19.0832 15.0164 15.0164 19.0832 9.99984 19.0832C4.98325 19.0832 0.916504 15.0164 0.916504 9.99984Z" fill="#0F172A"/>
<path fill-rule="evenodd" clip-rule="evenodd" d="M13.0306 6.96967C13.3235 7.26256 13.3235 7.73744 13.0306 8.03033L8.03057 13.0303C7.73768 13.3232 7.26281 13.3232 6.96991 13.0303C6.67702 12.7374 6.67702 12.2626 6.96991 11.9697L11.9699 6.96967C12.2628 6.67678 12.7377 6.67678 13.0306 6.96967Z" fill="#0F172A"/>
<path fill-rule="evenodd" clip-rule="evenodd" d="M11.3291 12.083C11.3291 11.6688 11.6649 11.333 12.0791 11.333H12.0866C12.5008 11.333 12.8366 11.6688 12.8366 12.083C12.8366 12.4972 12.5008 12.833 12.0866 12.833H12.0791C11.6649 12.833 11.3291 12.4972 11.3291 12.083Z" fill="#0F172A"/>
<path fill-rule="evenodd" clip-rule="evenodd" d="M7.16162 7.9165C7.16162 7.50229 7.49741 7.1665 7.91162 7.1665H7.91911C8.33332 7.1665 8.66911 7.50229 8.66911 7.9165C8.66911 8.33072 8.33332 8.6665 7.91911 8.6665H7.91162C7.49741 8.6665 7.16162 8.33072 7.16162 7.9165Z" fill="#0F172A"/>
</svg>
