<svg width="14" height="16" viewBox="0 0 14 16" fill="none" xmlns="http://www.w3.org/2000/svg">
<path fill-rule="evenodd" clip-rule="evenodd" d="M2.55335 1.82011C2.0935 1.82011 1.68668 2.19656 1.68668 2.75344V4.30011C1.68668 4.41248 1.7276 4.59496 1.82046 4.80195C1.91153 5.00493 2.03296 5.18753 2.15276 5.30734L2.16127 5.31606L4.72127 8.00942C4.72934 8.01791 4.73709 8.02669 4.74452 8.03575C4.91814 8.24749 5.07625 8.52735 5.19162 8.81626C5.3062 9.10316 5.39335 9.43573 5.39335 9.75344V13.3201C5.39335 13.9964 6.16822 14.4131 6.74403 14.0607L7.67973 13.4568C7.90246 13.313 8.19956 13.3771 8.34331 13.5998C8.48707 13.8225 8.42305 14.1196 8.20031 14.2634L7.2525 14.8751C6.082 15.5989 4.43335 14.8023 4.43335 13.3201V9.75344C4.43335 9.59781 4.38717 9.39038 4.30008 9.17229C4.21668 8.96343 4.10936 8.77883 4.01225 8.65692L1.46934 5.98154C1.25121 5.76196 1.07095 5.4766 0.944573 5.19491C0.819103 4.91524 0.726685 4.5944 0.726685 4.30011V2.75344C0.726685 1.69698 1.5332 0.860107 2.55335 0.860107H11.4467C12.4518 0.860107 13.2734 1.6817 13.2734 2.68679V4.16677C13.2734 4.52797 13.1625 4.90111 13.0183 5.21692C12.8736 5.53405 12.6753 5.83697 12.4594 6.05285C12.272 6.2403 11.9681 6.2403 11.7806 6.05285C11.5932 5.8654 11.5932 5.56148 11.7806 5.37403C11.8981 5.25658 12.0364 5.05616 12.145 4.81829C12.2542 4.5791 12.3134 4.34556 12.3134 4.16677V2.68679C12.3134 2.21188 11.9216 1.82011 11.4467 1.82011H2.55335Z" fill="#DC2626"/>
<path fill-rule="evenodd" clip-rule="evenodd" d="M10.2534 7.14677C8.77179 7.14677 7.56669 8.35186 7.56669 9.83343C7.56669 10.3374 7.70839 10.8165 7.95469 11.2139L7.9586 11.2202L7.95855 11.2203C8.42226 11.995 9.27594 12.5201 10.2534 12.5201C11.2324 12.5201 12.0846 12.0004 12.5474 11.2216L12.5504 11.2165L12.5504 11.2165C12.7991 10.8095 12.94 10.3358 12.94 9.83343C12.94 8.35186 11.7349 7.14677 10.2534 7.14677ZM6.60669 9.83343C6.60669 7.82167 8.24159 6.18677 10.2534 6.18677C12.2651 6.18677 13.9 7.82167 13.9 9.83343C13.9 10.5167 13.7082 11.162 13.3712 11.7145C12.7402 12.7743 11.58 13.4801 10.2534 13.4801C8.92544 13.4801 7.76679 12.7667 7.13673 11.7165C6.79759 11.1679 6.60669 10.5149 6.60669 9.83343Z" fill="#DC2626"/>
<path fill-rule="evenodd" clip-rule="evenodd" d="M9.087 8.6473C9.27445 8.45985 9.57837 8.45985 9.76582 8.6473L11.4392 10.3206C11.6266 10.5081 11.6266 10.812 11.4392 10.9995C11.2517 11.1869 10.9478 11.1869 10.7603 10.9995L9.087 9.32612C8.89955 9.13867 8.89955 8.83475 9.087 8.6473Z" fill="#DC2626"/>
<path fill-rule="evenodd" clip-rule="evenodd" d="M11.4265 8.66732C11.6139 8.85477 11.6139 9.15869 11.4265 9.34614L9.75313 11.0195C9.56568 11.2069 9.26176 11.2069 9.07431 11.0195C8.88685 10.832 8.88685 10.5281 9.0743 10.3407L10.7476 8.66732C10.9351 8.47987 11.239 8.47987 11.4265 8.66732Z" fill="#DC2626"/>
<path fill-rule="evenodd" clip-rule="evenodd" d="M2.55335 1.81339C2.0935 1.81339 1.68668 2.18984 1.68668 2.74672V4.30007C1.68668 4.40674 1.72785 4.58829 1.82265 4.79872C1.91525 5.00424 2.0378 5.19 2.15611 5.31067L2.16131 5.31598L4.72127 8.00938C4.73067 8.01927 4.73964 8.02956 4.74817 8.04021C4.91548 8.24935 5.07255 8.52669 5.18861 8.81495C5.3036 9.10052 5.39335 9.43392 5.39335 9.7534V13.32C5.39335 13.9964 6.16822 14.413 6.74403 14.0607L7.67973 13.4568C7.68529 13.4532 7.69094 13.4497 7.69665 13.4463C7.7622 13.4078 7.86012 13.3067 7.9446 13.1435C8.02052 12.9969 8.05988 12.8493 8.06588 12.7416C7.68742 12.4641 7.37338 12.1124 7.1358 11.7149C6.79863 11.1623 6.60668 10.5168 6.60668 9.8334C6.60668 7.82163 8.24159 6.18673 10.2534 6.18673C10.4406 6.18673 10.6262 6.20087 10.8074 6.22974L11.7883 5.3659C11.9055 5.24273 12.0395 5.04433 12.1448 4.81291C12.2542 4.57246 12.3134 4.33883 12.3134 4.16005V2.68007C12.3134 2.20516 11.9216 1.81339 11.4467 1.81339H2.55335ZM0.726685 2.74672C0.726685 1.69027 1.5332 0.853394 2.55335 0.853394H11.4467C12.4518 0.853394 13.2734 1.67498 13.2734 2.68007V4.16005C13.2734 4.52128 13.1625 4.89432 13.0186 5.21055C12.8739 5.52847 12.6764 5.83154 12.4628 6.04943C12.4546 6.0578 12.4461 6.06587 12.4373 6.07362L11.2639 7.10695C11.1464 7.21044 10.9858 7.25011 10.8336 7.21321C10.6533 7.1695 10.4581 7.14673 10.2534 7.14673C8.77178 7.14673 7.56668 8.35182 7.56668 9.8334C7.56668 10.3357 7.70758 10.8095 7.95626 11.2164L7.95889 11.2207C8.16795 11.5711 8.45391 11.8669 8.79751 12.0775C8.93989 12.1647 9.02669 12.3197 9.02669 12.4867V12.7134C9.02669 13.0108 8.93267 13.3231 8.7971 13.5849C8.66482 13.8404 8.46266 14.106 8.19303 14.268L7.2525 14.8751C6.082 15.5988 4.43335 14.8023 4.43335 13.32V9.7534C4.43335 9.59954 4.38644 9.39294 4.29809 9.17351C4.2142 8.96518 4.10661 8.7791 4.01015 8.65468L1.46782 5.97991C1.25402 5.76094 1.07424 5.47464 0.947381 5.19305C0.822186 4.91517 0.726685 4.59339 0.726685 4.30007V2.74672Z" fill="#DC2626"/>
</svg>
