<svg width="16" height="15" viewBox="0 0 16 15" fill="none" xmlns="http://www.w3.org/2000/svg">
<path fill-rule="evenodd" clip-rule="evenodd" d="M5.04 2.1668C3.32751 2.1668 1.93334 3.56203 1.93334 5.29346C1.93334 7.42721 2.91788 9.13972 4.16439 10.4169C5.41813 11.7015 6.89996 12.505 7.78051 12.8056L7.78637 12.8076L7.78636 12.8077C7.81551 12.818 7.8929 12.8335 8 12.8335C8.10711 12.8335 8.1845 12.818 8.21365 12.8077L8.21948 12.8056L8.21949 12.8056C9.10005 12.505 10.5819 11.7015 11.8356 10.4169C13.0821 9.13972 14.0667 7.42721 14.0667 5.29346C14.0667 3.56203 12.6725 2.1668 10.96 2.1668C9.95157 2.1668 9.04693 2.65675 8.4817 3.41786C8.36851 3.57028 8.18986 3.66013 8 3.66013C7.81015 3.66013 7.6315 3.57028 7.51831 3.41786C6.95271 2.65626 6.05451 2.1668 5.04 2.1668ZM0.733337 5.29346C0.733337 2.9049 2.65917 0.966797 5.04 0.966797C6.18999 0.966797 7.23142 1.42031 8.00028 2.15668C8.77085 1.42006 9.81584 0.966797 10.96 0.966797C13.3408 0.966797 15.2667 2.9049 15.2667 5.29346C15.2667 7.82638 14.0912 9.82387 12.6944 11.255C11.3059 12.6777 9.66261 13.5804 8.60973 13.9404C8.41303 14.0092 8.19182 14.0335 8 14.0335C7.80818 14.0335 7.58697 14.0092 7.39026 13.9404C6.33738 13.5804 4.69408 12.6776 3.30562 11.255C1.90879 9.82387 0.733337 7.82638 0.733337 5.29346Z" fill="#0F172A"/>
</svg>
