<svg width="20" height="18" viewBox="0 0 20 18" fill="none" xmlns="http://www.w3.org/2000/svg">
<path fill-rule="evenodd" clip-rule="evenodd" d="M6.29959 2.33325C4.15897 2.33325 2.41626 4.07729 2.41626 6.24158C2.41626 8.90877 3.64694 11.0494 5.20508 12.6459C6.77225 14.2516 8.62454 15.2561 9.72523 15.6318L9.73256 15.6343L9.73254 15.6343C9.76897 15.6472 9.86571 15.6666 9.99959 15.6666C10.1335 15.6666 10.2302 15.6472 10.2666 15.6343L10.2739 15.6318L10.274 15.6318C11.3746 15.2561 13.2269 14.2516 14.7941 12.6459C16.3522 11.0494 17.5829 8.90877 17.5829 6.24158C17.5829 4.07729 15.8402 2.33325 13.6996 2.33325C12.4391 2.33325 11.3083 2.9457 10.6017 3.89708C10.4602 4.0876 10.2369 4.19992 9.99959 4.19992C9.76228 4.19992 9.53897 4.0876 9.39748 3.89708C8.69048 2.94508 7.56773 2.33325 6.29959 2.33325ZM0.91626 6.24158C0.91626 3.25588 3.32355 0.833252 6.29959 0.833252C7.73707 0.833252 9.03886 1.40014 9.99994 2.32061C10.9632 1.39983 12.2694 0.833252 13.6996 0.833252C16.6756 0.833252 19.0829 3.25588 19.0829 6.24158C19.0829 9.40774 17.6136 11.9046 15.8676 13.6936C14.132 15.4718 12.0779 16.6003 10.7617 17.0503C10.5159 17.1363 10.2394 17.1666 9.99959 17.1666C9.75981 17.1666 9.48329 17.1363 9.23742 17.0503C7.92131 16.6003 5.86719 15.4718 4.13161 13.6936C2.38558 11.9046 0.91626 9.40774 0.91626 6.24158Z" fill="#0F172A"/>
</svg>
