<svg width="12" height="14" viewBox="0 0 12 14" fill="none" xmlns="http://www.w3.org/2000/svg">
<path fill-rule="evenodd" clip-rule="evenodd" d="M0.333252 5.87842C0.333252 2.81185 2.89584 0.333252 5.99555 0.333252C9.104 0.333252 11.6666 2.81185 11.6666 5.87842C11.6666 7.42371 11.1046 8.85834 10.1796 10.0743C9.15912 11.4156 7.90136 12.5842 6.48561 13.5015C6.16159 13.7135 5.86917 13.7295 5.51355 13.5015C4.08974 12.5842 2.83198 11.4156 1.82025 10.0743C0.894574 8.85834 0.333252 7.42371 0.333252 5.87842ZM4.1294 6.05109C4.1294 7.07839 4.96769 7.88637 5.99555 7.88637C7.02408 7.88637 7.87043 7.07839 7.87043 6.05109C7.87043 5.03178 7.02408 4.18447 5.99555 4.18447C4.96769 4.18447 4.1294 5.03178 4.1294 6.05109Z" fill="#64748B"/>
</svg>
