<svg width="16" height="18" viewBox="0 0 16 18" fill="none" xmlns="http://www.w3.org/2000/svg">
<path d="M7.99992 17.9666C7.09159 17.9666 6.19159 17.6999 5.48325 17.1749L1.89992 14.5C0.949918 13.7916 0.208252 12.3083 0.208252 11.1333V4.93328C0.208252 3.64995 1.14992 2.28328 2.35825 1.83328L6.51659 0.274951C7.34159 -0.0333822 8.64159 -0.0333822 9.46659 0.274951L13.6249 1.83328C14.8333 2.28328 15.7749 3.64995 15.7749 4.93328V11.125C15.7749 12.3083 15.0333 13.7833 14.0833 14.4916L10.4999 17.1666C9.80825 17.6999 8.90825 17.9666 7.99992 17.9666ZM6.95825 1.44995L2.79992 3.00828C2.09159 3.27495 1.46659 4.17495 1.46659 4.94162V11.1333C1.46659 11.925 2.02492 13.0333 2.64992 13.5L6.23325 16.175C7.19159 16.8916 8.80825 16.8916 9.77492 16.175L13.3583 13.5C13.9916 13.025 14.5416 11.925 14.5416 11.1333V4.93328C14.5416 4.17495 13.9166 3.27495 13.2083 2.99995L9.04992 1.44162C8.48325 1.24162 7.51659 1.24162 6.95825 1.44995Z" fill="white"/>
</svg>
