<svg width="18" height="18" viewBox="0 0 18 18" fill="none" xmlns="http://www.w3.org/2000/svg">
<path d="M17.0088 6.64151V11.3582C17.0088 11.3999 17.0088 11.4332 17.0005 11.4748C16.4172 10.9665 15.6672 10.6665 14.8338 10.6665C14.0505 10.6665 13.3255 10.9415 12.7505 11.3999C11.9838 12.0082 11.5005 12.9499 11.5005 13.9999C11.5005 14.6249 11.6755 15.2165 11.9838 15.7165C12.0588 15.8499 12.1505 15.9749 12.2505 16.0915L10.7255 16.9332C9.77552 17.4665 8.2255 17.4665 7.2755 16.9332L2.82551 14.4665C1.81717 13.9082 0.992188 12.5082 0.992188 11.3582V6.64151C0.992188 5.49151 1.81717 4.09152 2.82551 3.53319L7.2755 1.0665C8.2255 0.533171 9.77552 0.533171 10.7255 1.0665L15.1755 3.53319C16.1838 4.09152 17.0088 5.49151 17.0088 6.64151Z" stroke="white" stroke-width="1.2" stroke-linecap="round" stroke-linejoin="round"/>
</svg>
