<svg width="20" height="20" viewBox="0 0 20 20" fill="none" xmlns="http://www.w3.org/2000/svg">
<path fill-rule="evenodd" clip-rule="evenodd" d="M9.58342 2.41675C5.62537 2.41675 2.41675 5.62537 2.41675 9.58342C2.41675 13.5415 5.62537 16.7501 9.58342 16.7501C13.5415 16.7501 16.7501 13.5415 16.7501 9.58342C16.7501 5.62537 13.5415 2.41675 9.58342 2.41675ZM0.916748 9.58342C0.916748 4.79695 4.79695 0.916748 9.58342 0.916748C14.3699 0.916748 18.2501 4.79695 18.2501 9.58342C18.2501 14.3699 14.3699 18.2501 9.58342 18.2501C4.79695 18.2501 0.916748 14.3699 0.916748 9.58342Z" fill="#64748B"/>
<path fill-rule="evenodd" clip-rule="evenodd" d="M16.1364 16.1364C16.4293 15.8435 16.9042 15.8435 17.1971 16.1364L18.8637 17.8031C19.1566 18.096 19.1566 18.5709 18.8637 18.8637C18.5709 19.1566 18.096 19.1566 17.8031 18.8637L16.1364 17.1971C15.8435 16.9042 15.8435 16.4293 16.1364 16.1364Z" fill="#64748B"/>
</svg>
