<svg width="14" height="14" viewBox="0 0 14 14" fill="none" xmlns="http://www.w3.org/2000/svg">
<path d="M6.99609 0.833252C7.8058 0.833222 8.60738 0.99316 9.35547 1.30298C10.1036 1.61283 10.7838 2.06636 11.3564 2.63892C11.9291 3.21155 12.3835 3.89169 12.6934 4.63989C13.0032 5.38808 13.1622 6.19043 13.1621 7.00024C13.162 8.21978 12.8006 9.41201 12.123 10.426C11.4454 11.4401 10.4822 12.2308 9.35547 12.6975C8.22881 13.1641 6.98901 13.286 5.79297 13.0481C4.5969 12.8102 3.49812 12.2228 2.63574 11.3606C1.77339 10.4982 1.18525 9.39946 0.947266 8.20337C0.709323 7.00715 0.832088 5.7667 1.29883 4.63989C1.76555 3.51325 2.5554 2.54986 3.56934 1.87231C4.58344 1.19471 5.77644 0.833252 6.99609 0.833252ZM10.0557 3.19067C9.92752 3.20052 9.81204 3.23134 9.73828 3.25513C9.69932 3.2677 9.66647 3.2809 9.64258 3.29028C9.63078 3.29492 9.62088 3.2988 9.61328 3.302L2.4707 6.13892C2.46677 6.14041 2.46274 6.14291 2.45801 6.14478C2.44154 6.15127 2.41957 6.15964 2.39453 6.17114C2.34617 6.19336 2.27703 6.22865 2.20508 6.27856C2.09757 6.35318 1.79756 6.59241 1.84863 6.99927C1.88705 7.31183 2.09698 7.4992 2.21387 7.58325C2.2794 7.63035 2.34096 7.66418 2.38574 7.68579C2.40865 7.69684 2.42883 7.70479 2.44434 7.71118L2.47168 7.7229C2.4728 7.72332 2.47461 7.72352 2.47559 7.72388H2.47754V7.72485L2.48535 7.72681L4.28223 8.33911L4.51074 8.41724L4.71387 8.28638L5.03711 8.07739L5.01172 8.31274L4.78906 10.3049L4.74609 10.6897L5.10742 10.8274C5.21707 10.8693 5.33585 10.8833 5.45215 10.8674C5.56844 10.8515 5.67903 10.8063 5.77344 10.7366L5.79492 10.7209L5.81543 10.7024L6.66504 9.91724L8.14062 11.0637L8.16992 11.0862L8.20117 11.1047C8.32149 11.1728 8.45509 11.2145 8.59277 11.2268C8.73054 11.239 8.86949 11.2208 9 11.175C9.13041 11.1293 9.24974 11.0567 9.34961 10.9612C9.44943 10.8657 9.52762 10.7495 9.5791 10.6213L9.59668 10.5774L9.60645 10.5305L10.8789 4.03345L10.8877 3.9856V3.93677C10.8876 3.70496 10.7995 3.46167 10.5713 3.31079C10.3794 3.184 10.1718 3.18178 10.0557 3.19067Z" fill="#94A3B8" stroke="#94A3B8"/>
</svg>
