<svg width="16" height="16" viewBox="0 0 16 16" fill="none" xmlns="http://www.w3.org/2000/svg">
<path fill-rule="evenodd" clip-rule="evenodd" d="M6.29663 0.908428C6.53127 1.14242 6.53179 1.52232 6.2978 1.75695L3.88447 4.17695C3.65048 4.41159 3.27058 4.41212 3.03594 4.17813C2.8013 3.94413 2.80078 3.56424 3.03477 3.3296L5.4481 0.909598C5.6821 0.67496 6.06199 0.674436 6.29663 0.908428Z" fill="white"/>
<path fill-rule="evenodd" clip-rule="evenodd" d="M9.7022 0.908428C9.93684 0.674436 10.3167 0.67496 10.5507 0.909598L12.9641 3.3296C13.1981 3.56424 13.1975 3.94413 12.9629 4.17813C12.7283 4.41212 12.3484 4.41159 12.1144 4.17695L9.70103 1.75695C9.46704 1.52232 9.46756 1.14242 9.7022 0.908428Z" fill="white"/>
<path fill-rule="evenodd" clip-rule="evenodd" d="M2.09955 4.60248C2.06801 4.62361 1.93315 4.71496 1.93315 5.23314C1.93315 5.55335 1.97117 5.73316 2.00835 5.82882C2.03746 5.90374 2.06022 5.91497 2.06468 5.91716C2.06493 5.91729 2.06512 5.91738 2.06525 5.91746C2.08523 5.92897 2.14014 5.95104 2.27994 5.96131C2.38698 5.96918 2.49617 5.96836 2.63674 5.96731C2.69042 5.96691 2.74869 5.96647 2.81315 5.96647H13.1865C13.251 5.96647 13.3092 5.96691 13.3629 5.96731C13.5035 5.96836 13.6127 5.96918 13.7197 5.96131C13.8595 5.95104 13.9144 5.92897 13.9344 5.91746C13.9345 5.91738 13.9347 5.91729 13.935 5.91716C13.9394 5.91497 13.9622 5.90374 13.9913 5.82882C14.0285 5.73316 14.0665 5.55335 14.0665 5.23314C14.0665 4.71496 13.9316 4.62361 13.9001 4.60248C13.804 4.53813 13.6149 4.4998 13.1865 4.4998H2.81315C2.38473 4.4998 2.19564 4.53813 2.09955 4.60248ZM1.43176 3.60546C1.87067 3.31148 2.42158 3.2998 2.81315 3.2998H13.1865C13.5781 3.2998 14.129 3.31148 14.5679 3.60546C15.0713 3.94267 15.2665 4.51799 15.2665 5.23314C15.2665 6.00446 15.093 6.63477 14.5336 6.95715C14.2861 7.09981 14.0222 7.14232 13.8076 7.15809C13.6476 7.16985 13.4686 7.16841 13.3139 7.16718C13.2691 7.16682 13.2262 7.16647 13.1865 7.16647H2.81315C2.77342 7.16647 2.73058 7.16682 2.68571 7.16718C2.53101 7.16841 2.35203 7.16985 2.19199 7.15809C1.97742 7.14232 1.71358 7.09981 1.46605 6.95715C0.906677 6.63477 0.733154 6.00446 0.733154 5.23314C0.733154 4.51799 0.928295 3.94267 1.43176 3.60546Z" fill="white"/>
<path fill-rule="evenodd" clip-rule="evenodd" d="M6.50527 8.73315C6.83664 8.73315 7.10527 9.00178 7.10527 9.33315V11.6998C7.10527 12.0312 6.83664 12.2998 6.50527 12.2998C6.1739 12.2998 5.90527 12.0312 5.90527 11.6998V9.33315C5.90527 9.00178 6.1739 8.73315 6.50527 8.73315Z" fill="white"/>
<path fill-rule="evenodd" clip-rule="evenodd" d="M9.5729 8.73315C9.90427 8.73315 10.1729 9.00178 10.1729 9.33315V11.6998C10.1729 12.0312 9.90427 12.2998 9.5729 12.2998C9.24153 12.2998 8.9729 12.0312 8.9729 11.6998V9.33315C8.9729 9.00178 9.24153 8.73315 9.5729 8.73315Z" fill="white"/>
<path fill-rule="evenodd" clip-rule="evenodd" d="M13.7793 6.07726C14.1048 6.13967 14.318 6.45409 14.2556 6.77953L13.1356 12.6194C13.1356 12.6194 13.1356 12.6193 13.1356 12.6194C13.0181 13.2329 12.8606 13.944 12.3579 14.4708C11.8295 15.0244 11.0382 15.2665 9.92634 15.2665H5.90633C4.85554 15.2665 4.07146 15.0037 3.52773 14.4531C3.00093 13.9196 2.79353 13.2063 2.681 12.5242L1.74083 6.76316C1.68746 6.43611 1.90932 6.12772 2.23636 6.07435C2.56341 6.02098 2.8718 6.24283 2.92517 6.56988L3.865 12.3289C3.86497 12.3287 3.86503 12.329 3.865 12.3289C3.96581 12.9397 4.12181 13.3468 4.3816 13.6099C4.62455 13.856 5.05046 14.0665 5.90633 14.0665H9.92634C10.8878 14.0665 11.2865 13.8553 11.4898 13.6423C11.7187 13.4024 11.8345 13.0334 11.957 12.3937L13.0771 6.55351C13.1395 6.22807 13.4539 6.01484 13.7793 6.07726Z" fill="white"/>
</svg>
