<svg width="20" height="20" viewBox="0 0 20 20" fill="none" xmlns="http://www.w3.org/2000/svg">
<path fill-rule="evenodd" clip-rule="evenodd" d="M7.87122 1.13544C8.16451 1.42793 8.16517 1.90281 7.87268 2.1961L4.85601 5.2211C4.56352 5.5144 4.08865 5.51505 3.79535 5.22257C3.50206 4.93008 3.5014 4.4552 3.79389 4.16191L6.81056 1.13691C7.10305 0.843609 7.57792 0.842954 7.87122 1.13544Z" fill="#0F172A"/>
<path fill-rule="evenodd" clip-rule="evenodd" d="M12.1279 1.13544C12.4212 0.842954 12.896 0.843609 13.1885 1.13691L16.2052 4.16191C16.4977 4.4552 16.497 4.93008 16.2037 5.22257C15.9104 5.51505 15.4356 5.5144 15.1431 5.2211L12.1264 2.1961C11.8339 1.90281 11.8346 1.42793 12.1279 1.13544Z" fill="#0F172A"/>
<path fill-rule="evenodd" clip-rule="evenodd" d="M2.62425 5.7531C2.58483 5.77951 2.41626 5.89369 2.41626 6.54142C2.41626 6.94169 2.46378 7.16644 2.51025 7.28603C2.54664 7.37967 2.57509 7.39371 2.58066 7.39645C2.58098 7.39661 2.58122 7.39673 2.58138 7.39682C2.60635 7.41121 2.67499 7.4388 2.84974 7.45164C2.98354 7.46148 3.12002 7.46045 3.29574 7.45914C3.36285 7.45864 3.43567 7.45809 3.51626 7.45809H16.4829C16.5635 7.45809 16.6363 7.45864 16.7034 7.45914C16.8792 7.46045 17.0156 7.46148 17.1494 7.45164C17.3242 7.4388 17.3928 7.41121 17.4178 7.39682C17.418 7.39673 17.4182 7.39661 17.4185 7.39645C17.4241 7.39371 17.4525 7.37968 17.4889 7.28603C17.5354 7.16644 17.5829 6.94169 17.5829 6.54142C17.5829 5.89369 17.4144 5.77951 17.3749 5.7531C17.2548 5.67266 17.0185 5.62476 16.4829 5.62476H3.51626C2.98073 5.62476 2.74436 5.67266 2.62425 5.7531ZM1.78952 4.50682C2.33816 4.13935 3.02679 4.12476 3.51626 4.12476H16.4829C16.9724 4.12476 17.661 4.13935 18.2097 4.50682C18.839 4.92834 19.0829 5.64748 19.0829 6.54142C19.0829 7.50557 18.866 8.29346 18.1668 8.69644C17.8574 8.87476 17.5276 8.9279 17.2594 8.94761C17.0593 8.96231 16.8356 8.96052 16.6422 8.95897C16.5861 8.95852 16.5326 8.95809 16.4829 8.95809H3.51626C3.46659 8.95809 3.41305 8.95852 3.35695 8.95897C3.16357 8.96052 2.93985 8.96231 2.73981 8.94761C2.47159 8.9279 2.1418 8.87476 1.83238 8.69644C1.13316 8.29346 0.91626 7.50557 0.91626 6.54142C0.91626 5.64748 1.16019 4.92834 1.78952 4.50682Z" fill="#0F172A"/>
<path fill-rule="evenodd" clip-rule="evenodd" d="M8.13232 10.9165C8.54654 10.9165 8.88232 11.2523 8.88232 11.6665V14.6248C8.88232 15.0391 8.54654 15.3748 8.13232 15.3748C7.71811 15.3748 7.38232 15.0391 7.38232 14.6248V11.6665C7.38232 11.2523 7.71811 10.9165 8.13232 10.9165Z" fill="#0F172A"/>
<path fill-rule="evenodd" clip-rule="evenodd" d="M11.9666 10.9165C12.3808 10.9165 12.7166 11.2523 12.7166 11.6665V14.6248C12.7166 15.0391 12.3808 15.3748 11.9666 15.3748C11.5523 15.3748 11.2166 15.0391 11.2166 14.6248V11.6665C11.2166 11.2523 11.5523 10.9165 11.9666 10.9165Z" fill="#0F172A"/>
<path fill-rule="evenodd" clip-rule="evenodd" d="M17.2243 7.59657C17.6311 7.67459 17.8976 8.06761 17.8196 8.47441L16.4197 15.7742C16.4196 15.7743 16.4197 15.7741 16.4197 15.7742C16.2728 16.5411 16.0758 17.43 15.4475 18.0884C14.787 18.7805 13.7979 19.0831 12.408 19.0831H7.38304C6.06955 19.0831 5.08944 18.7547 4.40979 18.0664C3.75128 17.3995 3.49203 16.5079 3.35137 15.6552L2.17617 8.45394C2.10945 8.04514 2.38677 7.65965 2.79558 7.59294C3.20438 7.52622 3.58987 7.80354 3.65658 8.21235L4.83137 15.4111C4.83134 15.4109 4.83141 15.4113 4.83137 15.4111C4.95739 16.1747 5.15238 16.6836 5.47713 17.0124C5.78081 17.32 6.3132 17.5831 7.38304 17.5831H12.408C13.6098 17.5831 14.1083 17.3191 14.3623 17.0528C14.6485 16.753 14.7933 16.2918 14.9464 15.4921L16.3465 8.19188C16.4245 7.78508 16.8175 7.51855 17.2243 7.59657Z" fill="#0F172A"/>
</svg>
