<svg width="16" height="16" viewBox="0 0 16 16" fill="none" xmlns="http://www.w3.org/2000/svg">
<g clip-path="url(#clip0_6057_14715)">
<path fill-rule="evenodd" clip-rule="evenodd" d="M4.19702 3.04911L2.009 7.45186C2.00067 7.46824 1.99803 7.48674 2.00147 7.50465C2.0049 7.52257 2.01423 7.53896 2.02809 7.55143L7.9374 12.976C7.95419 12.9914 7.97655 13 7.9998 13C8.02306 13 8.04542 12.9914 8.0622 12.976L13.9715 7.55177C13.9854 7.5393 13.9947 7.52291 13.9981 7.50499C14.0016 7.48708 13.9989 7.46858 13.9906 7.4522L11.8026 3.04945C11.7955 3.03467 11.7842 3.02214 11.7699 3.01337C11.7556 3.0046 11.739 2.99996 11.722 3.00001H4.27833C4.26127 2.9998 4.24452 3.00433 4.23009 3.01305C4.21567 3.02176 4.20418 3.03429 4.19702 3.04911Z" fill="#50AF95"/>
<path fill-rule="evenodd" clip-rule="evenodd" d="M8.75931 7.90405C8.71689 7.9071 8.4977 7.91963 8.00876 7.91963C7.61987 7.91963 7.34376 7.90846 7.24689 7.90405C5.74402 7.84072 4.62226 7.5901 4.62226 7.29004C4.62226 6.98997 5.74402 6.7397 7.24689 6.67535V7.65445C7.34517 7.66122 7.62659 7.67714 8.01547 7.67714C8.48214 7.67714 8.71583 7.65852 8.7579 7.65479V6.67602C10.2576 6.74003 11.3769 6.99065 11.3769 7.29004C11.3769 7.58943 10.2579 7.84004 8.7579 7.90371L8.75931 7.90405ZM8.75931 6.57476V5.69861H10.8522V4.36255H5.15397V5.69861H7.24654V6.57442C5.54569 6.64927 4.2666 6.97203 4.2666 7.35879C4.2666 7.74555 5.54569 8.06797 7.24654 8.14316V10.9508H8.75896V8.14214C10.4559 8.06729 11.7329 7.74488 11.7329 7.35845C11.7329 6.97203 10.457 6.64961 8.75896 6.57442L8.75931 6.57476Z" fill="white"/>
</g>
<defs>
<clipPath id="clip0_6057_14715">
<rect width="12" height="10" fill="white" transform="translate(2 3)"/>
</clipPath>
</defs>
</svg>
