<svg width="20" height="20" viewBox="0 0 20 20" fill="none" xmlns="http://www.w3.org/2000/svg">
<path fill-rule="evenodd" clip-rule="evenodd" d="M10.0019 2.41675C8.1149 2.41675 6.58521 3.94644 6.58521 5.83342C6.58521 7.72039 8.1149 9.25008 10.0019 9.25008C11.8888 9.25008 13.4185 7.72039 13.4185 5.83342C13.4185 3.94644 11.8888 2.41675 10.0019 2.41675ZM5.08521 5.83342C5.08521 3.11801 7.28647 0.916748 10.0019 0.916748C12.7173 0.916748 14.9185 3.11801 14.9185 5.83342C14.9185 8.54882 12.7173 10.7501 10.0019 10.7501C7.28647 10.7501 5.08521 8.54882 5.08521 5.83342Z" fill="#0F172A"/>
<path fill-rule="evenodd" clip-rule="evenodd" d="M2.09326 18.3333C2.09326 14.5575 5.78872 11.75 10.0016 11.75C14.2145 11.75 17.9099 14.5575 17.9099 18.3333C17.9099 18.7475 17.5741 19.0833 17.1599 19.0833C16.7457 19.0833 16.4099 18.7475 16.4099 18.3333C16.4099 15.6592 13.6887 13.25 10.0016 13.25C6.31447 13.25 3.59326 15.6592 3.59326 18.3333C3.59326 18.7475 3.25748 19.0833 2.84326 19.0833C2.42905 19.0833 2.09326 18.7475 2.09326 18.3333Z" fill="#0F172A"/>
</svg>
